<svg width="82" height="67" viewBox="0 0 82 67" fill="none" xmlns="http://www.w3.org/2000/svg">
<path d="M29.5334 31.6393C29.6565 31.2244 29.7898 30.8042 29.9334 30.3893C30.077 29.9743 30.236 29.5438 30.4052 29.1029C31.6411 25.887 32.959 22.7385 34.3538 19.6575C35.7487 16.5765 37.282 13.5421 38.9588 10.5441C39.4922 9.61042 40.0255 8.69233 40.5588 7.78462C41.0921 6.87691 41.6408 5.99513 42.1947 5.1341C42.6049 4.49611 42.9998 4.16414 43.3793 4.13821C43.7536 4.11228 44.2715 4.28344 44.9279 4.65172C45.2408 4.87475 45.5587 5.08742 45.8766 5.2949C46.1895 5.50237 46.4971 5.74097 46.7843 6.01069C47.1946 6.33228 47.4407 6.57088 47.5125 6.72649C47.5843 6.88728 47.5023 7.1985 47.2561 7.66532C46.0407 9.90089 44.8818 12.1831 43.7793 14.5121C42.6767 16.8462 41.6152 19.1596 40.5947 21.4522C39.5742 23.75 38.5948 26.0063 37.6461 28.2263C36.7025 30.4463 35.7794 32.5626 34.882 34.5751C34.6153 35.1872 34.3589 35.5399 34.1179 35.6229C33.8769 35.711 33.4513 35.6281 32.8462 35.3843C32.4821 35.2598 32.1231 35.1301 31.7744 34.9952C31.4205 34.8604 31.077 34.7048 30.7385 34.5336C30.3026 34.3624 29.9693 34.1965 29.7385 34.0357C29.5078 33.8749 29.3539 33.6933 29.2821 33.4859C29.2103 33.2784 29.1949 33.0242 29.2462 32.7286C29.2975 32.4329 29.3898 32.0646 29.5385 31.6237L29.5334 31.6393Z" fill="white"/>
<path d="M58.2046 22.4012C59.7071 20.5858 61.1994 18.8533 62.6814 17.2091C64.1635 15.5648 65.6865 13.988 67.2506 12.4786C68.8146 10.9692 70.4402 9.51166 72.1274 8.09563C73.8145 6.68479 75.6145 5.27913 77.5324 3.87866C77.8247 3.65562 78.1324 3.54151 78.4606 3.53113C78.7888 3.52076 79.1119 3.56744 79.4247 3.67637C79.7375 3.78529 80.0554 3.93053 80.3734 4.1017C80.6862 4.27287 80.9939 4.44403 81.281 4.6152C81.5938 4.81231 81.8041 5.00941 81.9015 5.20651C81.999 5.40362 82.0246 5.61109 81.9733 5.83413C81.9221 6.05717 81.8349 6.29058 81.7015 6.53437C81.5682 6.77815 81.4298 7.02712 81.281 7.27091C80.2862 9.03965 79.2965 10.798 78.317 12.5564C77.3324 14.3096 76.3427 16.0731 75.3478 17.8419C72.6043 22.9251 70.5787 28.2468 69.271 33.8176C69.1736 34.1133 69.0967 34.4089 69.0351 34.6994C68.9736 34.995 68.8813 35.2751 68.7634 35.5449C68.5685 35.9857 68.2352 36.2243 67.7634 36.2607C67.2916 36.297 66.7737 36.2347 66.2147 36.0791C65.6557 35.9183 65.1121 35.7108 64.5788 35.4515C64.0455 35.1921 63.6199 35.0054 63.3071 34.8809C62.9686 34.7564 62.7071 34.6475 62.5225 34.549C62.343 34.4504 62.2045 34.3259 62.1225 34.1807C62.0353 34.0355 61.9994 33.8539 62.0148 33.6464C62.025 33.439 62.0712 33.1641 62.143 32.8165C62.5327 31.0737 63.0507 29.3932 63.7071 27.7748C64.3634 26.1565 65.1019 24.5745 65.9275 23.0236C66.7531 21.4779 67.6403 19.9581 68.5839 18.4591C69.5274 16.9601 70.4761 15.4766 71.4248 14.0035C71.1582 14.0554 70.9633 14.1384 70.8402 14.2629C70.7172 14.3874 70.5838 14.5326 70.4402 14.7038C68.2095 17.012 66.1737 19.3513 64.3429 21.7165C62.5122 24.0869 60.6866 26.5818 58.8661 29.2064C58.6969 29.4502 58.5482 29.6421 58.4302 29.777C58.3072 29.9119 58.1738 30.0052 58.0303 30.0519C57.8867 30.1038 57.7226 30.1141 57.538 30.0882C57.3585 30.0623 57.1174 30.0156 56.8303 29.943C56.4149 29.8444 55.9636 29.7511 55.4662 29.6681C54.9688 29.5851 54.4867 29.4606 54.0303 29.2998C53.5688 29.139 53.1688 28.9108 52.8304 28.6203C52.4919 28.3246 52.2714 27.9356 52.174 27.4429C52.0509 26.7582 51.9329 26.0683 51.8099 25.3837C51.6868 24.699 51.533 24.0091 51.3381 23.3245C50.174 25.2384 49.051 27.1524 47.9689 29.0664C46.8869 30.9804 45.8049 32.8943 44.7126 34.8083C44.5177 35.1506 44.3536 35.4152 44.2203 35.6019C44.087 35.7835 43.9331 35.9131 43.7639 35.9909C43.5947 36.0635 43.3998 36.0895 43.1793 36.0635C42.9588 36.0376 42.6562 35.965 42.2716 35.8405C42.005 35.7886 41.6409 35.716 41.1793 35.6175C40.7178 35.5189 40.287 35.3892 39.887 35.2285C39.4871 35.0677 39.1691 34.8602 38.9383 34.6008C38.7076 34.3415 38.7025 34.0199 38.9178 33.6257C41.5639 29.1338 44.2767 24.699 47.051 20.316C49.8304 15.9331 52.5791 11.5242 55.297 7.07899C55.5893 6.56549 55.9226 6.26465 56.297 6.17647C56.6713 6.08829 57.0713 6.11422 57.4969 6.24909C57.9226 6.38395 58.3482 6.59142 58.7687 6.8767C59.1943 7.1568 59.6097 7.41096 60.0251 7.63399C60.2661 7.77923 60.4558 7.9089 60.5892 8.02301C60.7225 8.13713 60.8097 8.25124 60.8456 8.37054C60.8815 8.49502 60.8866 8.64026 60.8661 8.81143C60.8404 8.9826 60.7943 9.20563 60.7225 9.47535C60.4815 10.4557 60.1994 11.4879 59.8866 12.5668C59.5687 13.6456 59.2712 14.7401 58.9943 15.8449C58.7123 16.9497 58.4764 18.0545 58.2867 19.1593C58.0918 20.2642 58.0097 21.3171 58.0303 22.3234L58.2149 22.396L58.2046 22.4012Z" fill="white"/>
<path d="M0.185425 65.1365C0.0213257 65.0328 -0.0299553 64.7786 0.0161975 64.3689C0.0674785 63.9591 0.195681 63.456 0.395677 62.8595C0.6008 62.263 0.857205 61.6042 1.17002 60.8729C1.48283 60.1467 1.81616 59.3998 2.15974 58.6425C2.50332 57.8852 2.84691 57.1435 3.18023 56.4277C3.51356 55.7119 3.81612 55.0635 4.07765 54.4878C3.48792 54.6123 3.03152 54.6486 2.70845 54.5967C2.38538 54.5448 2.14436 54.41 1.99564 54.1973C1.84693 53.9846 1.75462 53.689 1.72385 53.3207C1.69308 52.9524 1.68796 52.5115 1.70847 51.998C1.70847 51.526 1.8059 51.1889 1.99564 50.9814C2.19051 50.7791 2.43666 50.6339 2.73922 50.5509C3.04177 50.4679 3.38023 50.4264 3.74432 50.4264C4.10842 50.4264 4.47251 50.4108 4.84173 50.3797C5.20583 50.3486 5.54428 50.2604 5.84684 50.1204C6.1494 49.9751 6.4058 49.7313 6.6058 49.3838C6.96989 48.6836 7.33399 47.9574 7.70321 47.2001C8.06731 46.4428 8.44678 45.6804 8.84677 44.9231C9.24164 44.1658 9.64676 43.4189 10.0621 42.6927C10.4775 41.9665 10.9288 41.2818 11.416 40.6438C11.6365 40.2756 11.9647 40.1926 12.3903 40.4001C12.8775 40.566 13.3492 40.7424 13.8056 40.9395C14.262 41.1366 14.7236 41.3233 15.1902 41.5101C15.5338 41.676 15.7389 41.8265 15.8005 41.9717C15.862 42.1169 15.8518 42.3607 15.7697 42.7082C15.6261 43.284 15.4312 43.8649 15.1748 44.4459C14.9184 45.032 14.6518 45.6181 14.3697 46.199C14.0877 46.7852 13.7954 47.3661 13.5031 47.9367C13.2108 48.5124 12.939 49.0778 12.698 49.6276C13.1646 49.5861 13.6313 49.5342 14.0979 49.472C14.5646 49.4098 15.0313 49.389 15.4979 49.4098C16.0876 49.4305 16.5235 49.3371 16.8056 49.1349C17.0876 48.9274 17.344 48.5798 17.5645 48.0871C18.2927 46.6711 19.0158 45.255 19.7235 43.839C20.4311 42.423 21.1747 41.0069 21.9439 39.5909C22.1696 39.1604 22.4619 38.9425 22.826 38.9425C23.1901 38.9425 23.5644 39.0515 23.9541 39.2641C24.3387 39.482 24.6977 39.7517 25.0362 40.0785C25.3695 40.4053 25.6208 40.675 25.7797 40.8773C25.9028 41.0017 25.9131 41.2611 25.8105 41.6605C25.708 42.0599 25.549 42.5215 25.3233 43.0454C25.0977 43.5693 24.8362 44.1347 24.5336 44.7363C24.2311 45.3432 23.9388 45.9293 23.667 46.4895C23.3952 47.0549 23.1439 47.5684 22.9234 48.03C22.6978 48.4917 22.5593 48.834 22.4978 49.0622C23.0054 49.2282 23.349 49.4098 23.5336 49.6172C23.7183 49.8247 23.7952 50.193 23.7747 50.7272C23.7541 51.4067 23.6772 51.9099 23.5439 52.2366C23.4106 52.5634 23.2413 52.7916 23.026 52.9161C22.8106 53.0406 22.5798 53.0977 22.3234 53.0873C22.067 53.0769 21.8157 53.0873 21.5645 53.1029C21.308 53.1236 21.067 53.1858 20.8363 53.2896C20.6004 53.3933 20.4055 53.606 20.2414 53.938C19.3696 55.8052 18.5184 57.6466 17.6825 59.4672C16.8517 61.2826 15.9389 63.0981 14.9441 64.9031C14.8005 65.1469 14.6774 65.3388 14.5646 65.4737C14.4518 65.6085 14.3338 65.6915 14.2159 65.733C14.0928 65.7745 13.9492 65.7745 13.7749 65.733C13.6005 65.6915 13.3851 65.6189 13.1185 65.5152C12.7749 65.4114 12.3954 65.3077 11.9903 65.2091C11.5852 65.1054 11.2313 64.9706 10.9237 64.8098C10.6211 64.6438 10.4006 64.4311 10.2673 64.1614C10.1339 63.8969 10.1801 63.5338 10.4057 63.0825C11.057 61.6042 11.7288 60.1363 12.4313 58.6788C13.1339 57.2213 13.8262 55.7534 14.5184 54.2751L14.9748 53.2273C14.3441 53.2273 13.739 53.2377 13.1492 53.2585C12.5595 53.2792 11.9595 53.3 11.3544 53.3207C10.8262 53.3415 10.4621 53.5801 10.257 54.0313C10.0929 54.3581 9.86214 54.856 9.55445 55.5251C9.25189 56.1943 8.90318 56.936 8.51858 57.7555C8.13397 58.5751 7.72372 59.4309 7.28784 60.3127C6.85195 61.1945 6.43144 62.0192 6.02632 62.792C5.6212 63.5597 5.24685 64.2236 4.89814 64.7786C4.55456 65.3336 4.27764 65.6915 4.07765 65.8575C3.85201 66.0442 3.5751 66.1169 3.24177 66.0909C2.90844 66.0598 2.54948 65.9872 2.17513 65.8731C1.80077 65.759 1.35961 65.6387 1.00065 65.4987C0.64681 65.3534 0.636697 65.317 0.395677 65.2392L0.185425 65.1365Z" fill="white"/>
<path d="M20.9694 63.6321C21.072 63.2846 21.1848 62.9371 21.3028 62.5844C21.4258 62.2368 21.5592 61.8738 21.6976 61.5055C22.7335 58.8187 23.8309 56.1837 25.0001 53.6058C26.1693 51.0279 27.4513 48.4915 28.8513 45.9862C29.2975 45.2082 29.7436 44.4353 30.1897 43.678C30.6359 42.9207 31.0923 42.179 31.5589 41.4632C31.9025 40.9289 32.2359 40.654 32.5487 40.6333C32.8615 40.6125 33.2922 40.7578 33.8409 41.0638C34.1025 41.2505 34.3691 41.4269 34.6307 41.6032C34.8922 41.7796 35.1486 41.9767 35.3896 42.2049C35.7332 42.4695 35.9383 42.6718 35.9999 42.8066C36.0614 42.9415 35.9896 43.2008 35.7845 43.5898C34.7691 45.4571 33.7999 47.3659 32.8769 49.3162C31.9538 51.2665 31.0666 53.2012 30.2154 55.1204C29.3641 57.0395 28.5436 58.9276 27.7488 60.7845C26.959 62.6414 26.1847 64.4154 25.436 66.0959C25.2104 66.6094 25.0001 66.8999 24.795 66.9725C24.5899 67.0451 24.236 66.9725 23.7283 66.7702C23.4258 66.6665 23.1232 66.5576 22.8309 66.4486C22.5386 66.3345 22.2463 66.2048 21.9643 66.0648C21.6002 65.9196 21.3181 65.7847 21.1284 65.6498C20.9335 65.515 20.8105 65.3646 20.7489 65.1882C20.6874 65.0119 20.6771 64.8044 20.7182 64.5554C20.7592 64.3116 20.8412 64.0004 20.9592 63.6321H20.9694Z" fill="white"/>
<path d="M45.7844 58.2947C45.3177 58.6423 44.8459 59.0002 44.369 59.3581C43.8921 59.716 43.4203 60.0739 42.9537 60.4214C42.0204 61.0801 41.1229 61.6974 40.2614 62.2835C39.3999 62.8696 38.5486 63.269 37.7025 63.4868C36.8615 63.7047 36.0102 63.658 35.1436 63.3468C34.2821 63.0408 33.3846 62.299 32.4513 61.132C32.1488 60.7637 31.9436 60.3591 31.8411 59.9182C31.7385 59.4774 31.7385 59.0209 31.8411 58.5489C32.0667 57.2781 32.4975 55.8569 33.1334 54.2852C33.7692 52.7136 34.5744 51.142 35.5384 49.5599C36.5025 47.9779 37.6102 46.4685 38.8563 45.0318C40.1024 43.595 41.4306 42.3761 42.8306 41.3698C44.2306 40.3635 45.6921 39.6529 47.2151 39.2276C48.7382 38.8074 50.2715 38.823 51.8099 39.2743C52.7432 39.5596 53.456 39.9641 53.9432 40.4776C54.4303 40.9911 54.7329 41.5565 54.856 42.1686C54.979 42.7858 54.938 43.4186 54.7329 44.0774C54.5278 44.7361 54.215 45.3482 53.7893 45.9239C53.4252 46.4167 53.0611 46.7227 52.7073 46.8472C52.3535 46.9717 51.8817 46.9717 51.2919 46.8472C51.0509 46.7849 50.8048 46.7227 50.5638 46.6605C50.3227 46.5982 50.1074 46.5152 49.9227 46.4167C49.7381 46.3129 49.6048 46.1936 49.5125 46.0484C49.4202 45.9032 49.4048 45.7112 49.4663 45.4623C49.5279 45.2185 49.6356 44.9643 49.7843 44.7102C49.9381 44.456 50.0817 44.1967 50.2253 43.9425C50.3689 43.6883 50.4817 43.429 50.574 43.1748C50.6663 42.9207 50.692 42.6665 50.6509 42.4227C49.451 42.5057 48.3074 42.8377 47.21 43.4238C46.1126 44.0099 45.0716 44.762 44.0921 45.6853C43.1075 46.6086 42.1947 47.6615 41.3537 48.839C40.5127 50.0216 39.7589 51.225 39.1025 52.4543C38.4409 53.6836 37.8768 54.9129 37.3999 56.1318C36.923 57.3559 36.5641 58.4659 36.3179 59.4722C37.6769 58.7927 38.9691 58.0354 40.1999 57.1951C41.4255 56.3548 42.6409 55.473 43.8357 54.5498C43.4716 54.5913 43.1075 54.6587 42.7383 54.7521C42.3691 54.8454 42.0409 54.8817 41.7486 54.861C41.4563 54.8402 41.2204 54.7261 41.046 54.5238C40.8717 54.3164 40.7947 53.9481 40.8152 53.4138C40.8358 52.9211 40.8665 52.5424 40.9076 52.2727C40.9486 52.0082 41.0358 51.8007 41.164 51.6555C41.2973 51.5102 41.4973 51.4065 41.7742 51.3339C42.046 51.2613 42.4203 51.1835 42.887 51.1005C44.9793 50.7737 47.0561 50.4417 49.1279 50.115C51.1996 49.7882 53.3073 49.5081 55.4611 49.285C55.8457 49.2435 56.1636 49.3006 56.4047 49.4562C56.6457 49.6118 56.8303 49.8193 56.9534 50.089C57.0764 50.3535 57.1277 50.6492 57.1072 50.9656C57.0867 51.282 57.0046 51.5984 56.8662 51.9044C56.6405 52.0289 56.3636 52.1275 56.0303 52.1949C55.697 52.2675 55.338 52.3194 54.9637 52.3505C54.5893 52.3816 54.2201 52.4128 53.8509 52.4439C53.4868 52.475 53.1688 52.5217 52.9073 52.5839L53.3945 53.6006C52.6817 54.5031 52.0458 55.3797 51.4766 56.2355C50.9073 57.0862 50.3894 57.9472 49.9227 58.8238C49.4561 59.6952 49.0305 60.6133 48.6458 61.5781C48.2612 62.5428 47.9074 63.5802 47.5792 64.6902C47.4561 65.1207 47.2715 65.3905 47.0151 65.489C46.7587 65.5927 46.4818 65.5979 46.1792 65.5046C45.8767 65.4112 45.5587 65.2712 45.2357 65.0896C44.9126 64.9029 44.6152 64.7421 44.3536 64.5969C43.9075 64.3686 43.6408 64.1611 43.5639 63.964C43.4819 63.7669 43.5537 63.4454 43.7793 62.9941C44.1229 62.2575 44.5075 61.5054 44.9382 60.7482C45.3639 59.9909 45.7074 59.218 45.9741 58.44L45.7895 58.3155L45.7844 58.2947Z" fill="white"/>
<path d="M54.1816 64.1949C54.0175 64.0912 53.9662 63.837 54.0124 63.4273C54.0637 63.0175 54.1919 62.5144 54.3919 61.9179C54.597 61.3214 54.8534 60.6626 55.1662 59.9313C55.479 59.2051 55.8123 58.4582 56.1559 57.7009C56.4995 56.9436 56.8431 56.2019 57.1764 55.4861C57.5097 54.7703 57.8123 54.1219 58.0738 53.5462C57.4841 53.6707 57.0277 53.707 56.7046 53.6551C56.3816 53.6032 56.1405 53.4684 55.9918 53.2557C55.8431 53.043 55.7508 52.7474 55.72 52.3791C55.6893 52.0108 55.6841 51.5699 55.7047 51.0564C55.7047 50.5844 55.8021 50.2473 55.9918 50.0398C56.1867 49.8375 56.4328 49.6923 56.7354 49.6093C57.038 49.5263 57.3764 49.4848 57.7405 49.4848C58.1046 49.4848 58.4687 49.4692 58.8379 49.4381C59.202 49.407 59.5405 49.3188 59.843 49.1788C60.1456 49.0335 60.402 48.7898 60.602 48.4422C60.9661 47.742 61.3302 47.0158 61.6994 46.2585C62.0635 45.5012 62.443 44.7388 62.843 43.9815C63.2378 43.2242 63.6429 42.4773 64.0583 41.7511C64.4737 41.0249 64.925 40.3402 65.4121 39.7023C65.6326 39.334 65.9608 39.251 66.3865 39.4585C66.8736 39.6245 67.3454 39.8008 67.8018 39.9979C68.2582 40.195 68.7198 40.3817 69.1864 40.5685C69.53 40.7345 69.7351 40.8849 69.7967 41.0301C69.8582 41.1753 69.8479 41.4191 69.7659 41.7667C69.6223 42.3424 69.4274 42.9233 69.171 43.5043C68.9146 44.0904 68.648 44.6765 68.3659 45.2575C68.0839 45.8436 67.7916 46.4245 67.4993 46.9951C67.207 47.5708 66.9352 48.1362 66.6942 48.686C67.1608 48.6445 67.6275 48.5927 68.0941 48.5304C68.5608 48.4682 69.0274 48.4474 69.4941 48.4682C70.0838 48.4889 70.5197 48.3956 70.8018 48.1933C71.0838 47.9858 71.3402 47.6383 71.5607 47.1455C72.2889 45.7295 73.012 44.3134 73.7197 42.8974C74.4273 41.4814 75.1709 40.0653 75.9401 38.6493C76.1658 38.2188 76.4581 38.0009 76.8221 38.0009C77.1862 38.0009 77.5606 38.1099 77.9503 38.3225C78.3349 38.5404 78.6939 38.8101 79.0324 39.1369C79.3657 39.4637 79.617 39.7334 79.7759 39.9357C79.899 40.0602 79.9093 40.3195 79.8067 40.7189C79.7041 41.1183 79.5452 41.5799 79.3195 42.1038C79.0939 42.6277 78.8324 43.1931 78.5298 43.7947C78.2272 44.4016 77.9349 44.9877 77.6632 45.5479C77.3914 46.1133 77.1401 46.6268 76.9196 47.0884C76.6939 47.5501 76.5555 47.8924 76.494 48.1206C77.0016 48.2866 77.3452 48.4682 77.5298 48.6756C77.7144 48.8831 77.7914 49.2514 77.7708 49.7856C77.7503 50.4651 77.6734 50.9683 77.5401 51.295C77.4067 51.6218 77.2375 51.85 77.0221 51.9745C76.8068 52.099 76.576 52.1561 76.3196 52.1457C76.0632 52.1353 75.8119 52.1457 75.5606 52.1613C75.3042 52.182 75.0632 52.2442 74.8324 52.348C74.5966 52.4517 74.4017 52.6644 74.2376 52.9964C73.3658 54.8636 72.5146 56.705 71.6787 58.5256C70.8479 60.341 69.9351 62.1565 68.9403 63.9615C68.7967 64.2053 68.6736 64.3972 68.5608 64.5321C68.448 64.6669 68.33 64.7499 68.2121 64.7914C68.089 64.8329 67.9454 64.8329 67.7711 64.7914C67.5967 64.7499 67.3813 64.6773 67.1147 64.5736C66.7711 64.4698 66.3916 64.3661 65.9865 64.2675C65.5814 64.1638 65.2275 64.0289 64.9198 63.8682C64.6173 63.7022 64.3968 63.4895 64.2634 63.2198C64.1301 62.9553 64.1763 62.5922 64.4019 62.1409C65.0532 60.6626 65.725 59.1947 66.4275 57.7372C67.13 56.2797 67.8223 54.8118 68.5146 53.3335L68.971 52.2857C68.3403 52.2857 67.7352 52.2961 67.1454 52.3169C66.5557 52.3376 65.9557 52.3584 65.3506 52.3791C64.8224 52.3999 64.4583 52.6385 64.2532 53.0897C64.0891 53.4165 63.8583 53.9144 63.5506 54.5836C63.2481 55.2527 62.8994 55.9944 62.5148 56.8139C62.1302 57.6335 61.7199 58.4893 61.284 59.3711C60.8481 60.2529 60.4276 61.0776 60.0225 61.8504C59.6174 62.6181 59.243 63.282 58.8943 63.837C58.5507 64.392 58.2738 64.7499 58.0738 64.9159C57.8482 65.1026 57.5713 65.1753 57.238 65.1493C56.9046 65.1182 56.5457 65.0456 56.1713 64.9315C55.797 64.8174 55.4329 64.6877 55.0739 64.5476C54.7201 64.4024 54.4175 64.2883 54.1765 64.2105L54.1816 64.1949Z" fill="white"/>
<path d="M29.8923 21.3639C29.8564 21.6596 29.7487 21.8671 29.559 21.9915C29.3692 22.1108 29.1538 22.2353 28.9026 22.3598C28.6513 22.4843 28.3949 22.6347 28.1231 22.8059C27.8513 22.9822 27.6052 23.2727 27.3847 23.6773C26.2411 25.9492 25.1232 28.2418 24.0257 30.55C22.9335 32.8582 21.8617 35.1819 20.8207 37.5264C20.6463 37.8791 20.4822 38.1021 20.3284 38.1955C20.1746 38.2889 19.9028 38.2992 19.5079 38.2214C19.113 38.1436 18.6566 38.0503 18.1284 37.9465C17.6002 37.8376 17.1182 37.6872 16.6823 37.4901C16.2464 37.293 15.9131 37.0336 15.6772 36.712C15.4413 36.3905 15.4208 35.9703 15.6105 35.4464C16.2413 33.5688 16.9746 31.7274 17.8156 29.9275C18.6566 28.1277 19.5284 26.3278 20.431 24.5331C19.8771 24.6836 19.2361 24.8495 18.5079 25.0259C17.7746 25.2022 17.0515 25.4097 16.3336 25.6587C15.6157 25.9077 14.9644 26.2137 14.3747 26.5768C13.7849 26.9399 13.3747 27.3859 13.1337 27.915C13.026 28.1899 12.9286 28.3974 12.8362 28.5374C12.7439 28.6775 12.6414 28.7709 12.5234 28.8123C12.4055 28.8538 12.2568 28.859 12.0875 28.8123C11.9132 28.7709 11.6927 28.7086 11.4209 28.6256C10.9542 28.4804 10.5081 28.4493 10.0876 28.5323C9.66709 28.6152 9.27735 28.7242 8.91838 28.8538C8.55942 28.9835 8.22609 29.0821 7.91328 29.1495C7.60046 29.2169 7.31842 29.1599 7.06714 28.9731C6.76458 28.7916 6.39023 28.5011 5.94409 28.0914C5.49794 27.6868 5.16975 27.3393 4.95949 27.0592C4.69796 26.7065 4.63642 26.3745 4.78001 26.0737C4.9236 25.7728 5.19026 25.472 5.59025 25.1815C5.99024 24.891 6.46715 24.6109 7.02099 24.3464C7.57995 24.0819 8.12866 23.8225 8.67224 23.558C9.21581 23.2935 9.70811 23.0393 10.144 22.7955C10.5799 22.5517 10.8876 22.3028 11.0722 22.0434C12.4568 20.1761 13.8362 18.3088 15.2054 16.4363C16.5746 14.569 17.9797 12.7277 19.4156 10.9175C20.8515 9.10721 22.3386 7.34366 23.877 5.62678C25.4155 3.90991 27.0513 2.25528 28.7898 0.662894C29.2103 0.294622 29.7179 0.0819579 30.3231 0.0249017C30.9282 -0.0321545 31.5538 0.0093409 32.2051 0.144201C32.8563 0.279061 33.4973 0.496912 34.1332 0.797754C34.7691 1.09341 35.3281 1.43056 35.8101 1.79364C36.2922 2.16192 36.6614 2.54056 36.928 2.92958C37.1896 3.3186 37.2819 3.6765 37.205 4.00328C37.0101 4.87468 36.7332 5.73052 36.3742 6.5708C36.0152 7.41627 35.6255 8.25137 35.1947 9.08647C34.764 9.92156 34.3178 10.7463 33.8461 11.5554C33.3794 12.3698 32.9486 13.1634 32.5486 13.9466C31.9999 15.0359 31.4307 16.1096 30.841 17.1729C30.2513 18.2362 29.6718 19.3151 29.0974 20.3992L29.8769 21.3535L29.8923 21.3639ZM30.6871 5.98468C30.4051 6.19735 29.9128 6.65898 29.2103 7.37478C28.5077 8.09057 27.7129 8.92567 26.8257 9.88007C25.9385 10.8396 25.0206 11.8615 24.0719 12.9611C23.1232 14.0555 22.2514 15.0877 21.4617 16.0525C20.672 17.0173 20.0207 17.8576 19.4976 18.5734C18.9746 19.2891 18.6977 19.7612 18.6618 19.9842C19.4053 19.8234 20.154 19.6782 20.8976 19.5485C21.6463 19.424 22.3489 19.2321 23.0155 18.9727C23.2309 18.8898 23.5488 18.563 23.9642 17.9976C24.3847 17.4322 24.8514 16.7268 25.3642 15.8762C25.877 15.0255 26.4257 14.097 27.0052 13.096C27.5846 12.0949 28.1282 11.1301 28.641 10.2068C29.1487 9.28357 29.6 8.45366 29.9846 7.71712C30.3692 6.98576 30.6512 6.45151 30.8307 6.12473L30.6769 5.98468H30.6871Z" fill="white"/>
</svg>
