<svg width="93" height="99" viewBox="0 0 93 99" fill="none" xmlns="http://www.w3.org/2000/svg">
<rect x="1.32764" y="0.5" width="90.1947" height="98" fill="#D5D5D5"/>
<rect x="1.32764" y="0.5" width="90.1947" height="98" stroke="#494949" stroke-dasharray="2 2"/>
<path d="M29.7142 28.5H27.2982V24.948L22.5462 17.78H25.5062L27.5542 20.916L28.4502 22.356H28.6262L29.5222 20.916L31.5702 17.78H34.5462L29.7142 24.964V28.5ZM40.6829 28.66C37.1309 28.66 34.9229 26.484 34.9229 23.14C34.9229 19.796 37.1309 17.62 40.6829 17.62C44.3149 17.62 46.5069 19.796 46.5069 23.14C46.5069 26.484 44.3149 28.66 40.6829 28.66ZM40.6829 26.356C43.0349 26.356 43.9469 25.524 43.9469 23.14C43.9469 20.756 43.0349 19.924 40.6829 19.924C38.3309 19.924 37.4669 20.756 37.4669 23.14C37.4669 25.524 38.3309 26.356 40.6829 26.356ZM52.8975 28.66C49.4095 28.66 47.6335 26.9 47.6335 24.02V17.78H50.0335V23.844C50.0335 25.668 50.7215 26.324 52.8975 26.324C55.0895 26.324 55.7615 25.668 55.7615 23.844V17.78H58.1615V24.02C58.1615 26.9 56.4015 28.66 52.8975 28.66ZM61.9297 28.5H59.5297V17.78H65.4497C68.0897 17.78 69.5937 18.948 69.5937 20.996C69.5937 22.74 68.5857 23.78 66.5697 23.972V24.1C67.5297 24.356 67.8977 24.868 68.2977 25.62L69.8497 28.5H67.0657L65.5937 25.716C65.1617 24.884 64.7617 24.612 63.5137 24.612H61.9297V28.5ZM61.9297 19.94V22.804H65.4337C66.5697 22.804 67.0817 22.484 67.0817 21.364C67.0817 20.308 66.5697 19.94 65.4337 19.94H61.9297ZM24.1499 54.5H17.4139V43.78H23.8459C26.0379 43.78 27.2219 44.708 27.2219 46.388C27.2219 47.716 26.5179 48.676 24.7259 48.804V48.948C26.7099 49.092 27.6699 50.084 27.6699 51.524C27.6699 53.348 26.5499 54.5 24.1499 54.5ZM19.8139 45.94V48.036H23.5739C24.4539 48.036 24.8219 47.732 24.8219 46.996C24.8219 46.26 24.4379 45.94 23.5419 45.94H19.8139ZM19.8139 50.02V52.34H23.8619C24.8379 52.34 25.2379 52.036 25.2379 51.172C25.2379 50.324 24.8379 50.02 23.8619 50.02H19.8139ZM31.1157 54.5H28.7157V43.78H34.6357C37.2757 43.78 38.7797 44.948 38.7797 46.996C38.7797 48.74 37.7717 49.78 35.7557 49.972V50.1C36.7157 50.356 37.0837 50.868 37.4837 51.62L39.0357 54.5H36.2517L34.7797 51.716C34.3477 50.884 33.9477 50.612 32.6997 50.612H31.1157V54.5ZM31.1157 45.94V48.804H34.6197C35.7557 48.804 36.2677 48.484 36.2677 47.364C36.2677 46.308 35.7557 45.94 34.6197 45.94H31.1157ZM41.9218 54.5H39.2338L43.9218 43.78H47.3458L52.0658 54.5H49.3138L48.3058 52.132H42.9458L41.9218 54.5ZM44.8818 47.636L43.8738 49.972H47.3778L46.3698 47.636L45.7138 45.972H45.5378L44.8818 47.636ZM55.1857 54.5H52.7857V43.78H55.3457L59.1857 48.852L60.6577 51.108H60.8337L60.7217 48.948V43.78H63.1217V54.5H60.5617L56.6097 49.38L55.2497 47.364H55.0897L55.1857 49.332V54.5ZM69.851 54.5H64.683V43.78H69.851C73.291 43.78 75.467 45.78 75.467 49.14C75.467 52.5 73.291 54.5 69.851 54.5ZM69.851 45.94H67.083V52.34H69.851C72.027 52.34 72.907 51.716 72.907 49.14C72.907 46.564 72.027 45.94 69.851 45.94ZM27.686 80.5H25.286V69.78H27.686V74.036H33.286V69.78H35.686V80.5H33.286V76.196H27.686V80.5ZM46.2055 80.5H37.1335V69.78H46.2055V71.94H39.5335V74.036H45.9655V76.18H39.5335V78.34H46.2055V80.5ZM49.8497 80.5H47.4497V69.78H53.3697C56.0097 69.78 57.5137 70.948 57.5137 72.996C57.5137 74.74 56.5057 75.78 54.4897 75.972V76.1C55.4497 76.356 55.8177 76.868 56.2177 77.62L57.7697 80.5H54.9857L53.5137 77.716C53.0817 76.884 52.6817 76.612 51.4337 76.612H49.8497V80.5ZM49.8497 71.94V74.804H53.3537C54.4897 74.804 55.0017 74.484 55.0017 73.364C55.0017 72.308 54.4897 71.94 53.3537 71.94H49.8497ZM67.7599 80.5H58.6879V69.78H67.7599V71.94H61.0879V74.036H67.5199V76.18H61.0879V78.34H67.7599V80.5Z" fill="#494949"/>
</svg>
